<svg xmlns="http://www.w3.org/2000/svg" version="1.1" xmlns:xlink="http://www.w3.org/1999/xlink" xmlns:svgjs="http://svgjs.dev/svgjs" viewBox="0 0 800 800"><g stroke-width="2" stroke="hsl(10, 75%, 40%)" fill="none" stroke-linecap="round" transform="matrix(1,0,0,1,0,197.96899032592773)"><path d="M10,10C21.805555555555557,10.833333333333334,40.97222222222223,22.958333333333336,66.66666666666667,14C92.36111111111111,5.041666666666666,105.55555555555557,-33.416666666666664,133.33333333333334,-33C161.11111111111111,-32.583333333333336,172.22222222222223,12.666666666666668,200,16C227.77777777777777,19.333333333333332,238.8888888888889,-18.458333333333332,266.6666666666667,-17C294.44444444444446,-15.541666666666666,305.5555555555556,22.791666666666668,333.33333333333337,23C361.11111111111114,23.208333333333332,372.22222222222223,-18.083333333333332,400,-16C427.77777777777777,-13.916666666666666,438.8888888888889,31.125,466.6666666666667,33C494.44444444444446,34.875,505.5555555555556,-10.958333333333332,533.3333333333334,-7C561.1111111111111,-3.041666666666667,572.2222222222222,49.916666666666664,600,52C627.7777777777778,54.083333333333336,638.8888888888889,5.708333333333333,666.6666666666667,3C694.4444444444446,0.29166666666666696,707.6388888888889,37.541666666666664,733.3333333333334,39C759.0277777777778,40.458333333333336,778.1944444444445,16.041666666666664,790,10"></path><path d="M10,10C21.805555555555557,10.833333333333334,40.97222222222223,22.958333333333336,66.66666666666667,14C92.36111111111111,5.041666666666666,105.55555555555557,-33.416666666666664,133.33333333333334,-33C161.11111111111111,-32.583333333333336,172.22222222222223,12.666666666666668,200,16C227.77777777777777,19.333333333333332,238.8888888888889,-18.458333333333332,266.6666666666667,-17C294.44444444444446,-15.541666666666666,305.5555555555556,22.791666666666668,333.33333333333337,23C361.11111111111114,23.208333333333332,372.22222222222223,-18.083333333333332,400,-16C427.77777777777777,-13.916666666666666,438.8888888888889,31.125,466.6666666666667,33C494.44444444444446,34.875,505.5555555555556,-10.958333333333332,533.3333333333334,-7C561.1111111111111,-3.041666666666667,572.2222222222222,49.916666666666664,600,52C627.7777777777778,54.083333333333336,638.8888888888889,5.708333333333333,666.6666666666667,3C694.4444444444446,0.29166666666666696,707.6388888888889,37.541666666666664,733.3333333333334,39C759.0277777777778,40.458333333333336,778.1944444444445,16.041666666666664,790,10" transform="matrix(1,0,0,1,0,385)"></path><path d="M10,10C21.805555555555557,10.833333333333334,40.97222222222223,22.958333333333336,66.66666666666667,14C92.36111111111111,5.041666666666666,105.55555555555557,-33.416666666666664,133.33333333333334,-33C161.11111111111111,-32.583333333333336,172.22222222222223,12.666666666666668,200,16C227.77777777777777,19.333333333333332,238.8888888888889,-18.458333333333332,266.6666666666667,-17C294.44444444444446,-15.541666666666666,305.5555555555556,22.791666666666668,333.33333333333337,23C361.11111111111114,23.208333333333332,372.22222222222223,-18.083333333333332,400,-16C427.77777777777777,-13.916666666666666,438.8888888888889,31.125,466.6666666666667,33C494.44444444444446,34.875,505.5555555555556,-10.958333333333332,533.3333333333334,-7C561.1111111111111,-3.041666666666667,572.2222222222222,49.916666666666664,600,52C627.7777777777778,54.083333333333336,638.8888888888889,5.708333333333333,666.6666666666667,3C694.4444444444446,0.29166666666666696,707.6388888888889,37.541666666666664,733.3333333333334,39C759.0277777777778,40.458333333333336,778.1944444444445,16.041666666666664,790,10" transform="matrix(1,0,0,1,0,350)"></path><path d="M10,10C21.805555555555557,10.833333333333334,40.97222222222223,22.958333333333336,66.66666666666667,14C92.36111111111111,5.041666666666666,105.55555555555557,-33.416666666666664,133.33333333333334,-33C161.11111111111111,-32.583333333333336,172.22222222222223,12.666666666666668,200,16C227.77777777777777,19.333333333333332,238.8888888888889,-18.458333333333332,266.6666666666667,-17C294.44444444444446,-15.541666666666666,305.5555555555556,22.791666666666668,333.33333333333337,23C361.11111111111114,23.208333333333332,372.22222222222223,-18.083333333333332,400,-16C427.77777777777777,-13.916666666666666,438.8888888888889,31.125,466.6666666666667,33C494.44444444444446,34.875,505.5555555555556,-10.958333333333332,533.3333333333334,-7C561.1111111111111,-3.041666666666667,572.2222222222222,49.916666666666664,600,52C627.7777777777778,54.083333333333336,638.8888888888889,5.708333333333333,666.6666666666667,3C694.4444444444446,0.29166666666666696,707.6388888888889,37.541666666666664,733.3333333333334,39C759.0277777777778,40.458333333333336,778.1944444444445,16.041666666666664,790,10" transform="matrix(1,0,0,1,0,315)"></path><path d="M10,10C21.805555555555557,10.833333333333334,40.97222222222223,22.958333333333336,66.66666666666667,14C92.36111111111111,5.041666666666666,105.55555555555557,-33.416666666666664,133.33333333333334,-33C161.11111111111111,-32.583333333333336,172.22222222222223,12.666666666666668,200,16C227.77777777777777,19.333333333333332,238.8888888888889,-18.458333333333332,266.6666666666667,-17C294.44444444444446,-15.541666666666666,305.5555555555556,22.791666666666668,333.33333333333337,23C361.11111111111114,23.208333333333332,372.22222222222223,-18.083333333333332,400,-16C427.77777777777777,-13.916666666666666,438.8888888888889,31.125,466.6666666666667,33C494.44444444444446,34.875,505.5555555555556,-10.958333333333332,533.3333333333334,-7C561.1111111111111,-3.041666666666667,572.2222222222222,49.916666666666664,600,52C627.7777777777778,54.083333333333336,638.8888888888889,5.708333333333333,666.6666666666667,3C694.4444444444446,0.29166666666666696,707.6388888888889,37.541666666666664,733.3333333333334,39C759.0277777777778,40.458333333333336,778.1944444444445,16.041666666666664,790,10" transform="matrix(1,0,0,1,0,280)"></path><path d="M10,10C21.805555555555557,10.833333333333334,40.97222222222223,22.958333333333336,66.66666666666667,14C92.36111111111111,5.041666666666666,105.55555555555557,-33.416666666666664,133.33333333333334,-33C161.11111111111111,-32.583333333333336,172.22222222222223,12.666666666666668,200,16C227.77777777777777,19.333333333333332,238.8888888888889,-18.458333333333332,266.6666666666667,-17C294.44444444444446,-15.541666666666666,305.5555555555556,22.791666666666668,333.33333333333337,23C361.11111111111114,23.208333333333332,372.22222222222223,-18.083333333333332,400,-16C427.77777777777777,-13.916666666666666,438.8888888888889,31.125,466.6666666666667,33C494.44444444444446,34.875,505.5555555555556,-10.958333333333332,533.3333333333334,-7C561.1111111111111,-3.041666666666667,572.2222222222222,49.916666666666664,600,52C627.7777777777778,54.083333333333336,638.8888888888889,5.708333333333333,666.6666666666667,3C694.4444444444446,0.29166666666666696,707.6388888888889,37.541666666666664,733.3333333333334,39C759.0277777777778,40.458333333333336,778.1944444444445,16.041666666666664,790,10" transform="matrix(1,0,0,1,0,245)"></path><path d="M10,10C21.805555555555557,10.833333333333334,40.97222222222223,22.958333333333336,66.66666666666667,14C92.36111111111111,5.041666666666666,105.55555555555557,-33.416666666666664,133.33333333333334,-33C161.11111111111111,-32.583333333333336,172.22222222222223,12.666666666666668,200,16C227.77777777777777,19.333333333333332,238.8888888888889,-18.458333333333332,266.6666666666667,-17C294.44444444444446,-15.541666666666666,305.5555555555556,22.791666666666668,333.33333333333337,23C361.11111111111114,23.208333333333332,372.22222222222223,-18.083333333333332,400,-16C427.77777777777777,-13.916666666666666,438.8888888888889,31.125,466.6666666666667,33C494.44444444444446,34.875,505.5555555555556,-10.958333333333332,533.3333333333334,-7C561.1111111111111,-3.041666666666667,572.2222222222222,49.916666666666664,600,52C627.7777777777778,54.083333333333336,638.8888888888889,5.708333333333333,666.6666666666667,3C694.4444444444446,0.29166666666666696,707.6388888888889,37.541666666666664,733.3333333333334,39C759.0277777777778,40.458333333333336,778.1944444444445,16.041666666666664,790,10" transform="matrix(1,0,0,1,0,210)"></path><path d="M10,10C21.805555555555557,10.833333333333334,40.97222222222223,22.958333333333336,66.66666666666667,14C92.36111111111111,5.041666666666666,105.55555555555557,-33.416666666666664,133.33333333333334,-33C161.11111111111111,-32.583333333333336,172.22222222222223,12.666666666666668,200,16C227.77777777777777,19.333333333333332,238.8888888888889,-18.458333333333332,266.6666666666667,-17C294.44444444444446,-15.541666666666666,305.5555555555556,22.791666666666668,333.33333333333337,23C361.11111111111114,23.208333333333332,372.22222222222223,-18.083333333333332,400,-16C427.77777777777777,-13.916666666666666,438.8888888888889,31.125,466.6666666666667,33C494.44444444444446,34.875,505.5555555555556,-10.958333333333332,533.3333333333334,-7C561.1111111111111,-3.041666666666667,572.2222222222222,49.916666666666664,600,52C627.7777777777778,54.083333333333336,638.8888888888889,5.708333333333333,666.6666666666667,3C694.4444444444446,0.29166666666666696,707.6388888888889,37.541666666666664,733.3333333333334,39C759.0277777777778,40.458333333333336,778.1944444444445,16.041666666666664,790,10" transform="matrix(1,0,0,1,0,175)"></path><path d="M10,10C21.805555555555557,10.833333333333334,40.97222222222223,22.958333333333336,66.66666666666667,14C92.36111111111111,5.041666666666666,105.55555555555557,-33.416666666666664,133.33333333333334,-33C161.11111111111111,-32.583333333333336,172.22222222222223,12.666666666666668,200,16C227.77777777777777,19.333333333333332,238.8888888888889,-18.458333333333332,266.6666666666667,-17C294.44444444444446,-15.541666666666666,305.5555555555556,22.791666666666668,333.33333333333337,23C361.11111111111114,23.208333333333332,372.22222222222223,-18.083333333333332,400,-16C427.77777777777777,-13.916666666666666,438.8888888888889,31.125,466.6666666666667,33C494.44444444444446,34.875,505.5555555555556,-10.958333333333332,533.3333333333334,-7C561.1111111111111,-3.041666666666667,572.2222222222222,49.916666666666664,600,52C627.7777777777778,54.083333333333336,638.8888888888889,5.708333333333333,666.6666666666667,3C694.4444444444446,0.29166666666666696,707.6388888888889,37.541666666666664,733.3333333333334,39C759.0277777777778,40.458333333333336,778.1944444444445,16.041666666666664,790,10" transform="matrix(1,0,0,1,0,140)"></path><path d="M10,10C21.805555555555557,10.833333333333334,40.97222222222223,22.958333333333336,66.66666666666667,14C92.36111111111111,5.041666666666666,105.55555555555557,-33.416666666666664,133.33333333333334,-33C161.11111111111111,-32.583333333333336,172.22222222222223,12.666666666666668,200,16C227.77777777777777,19.333333333333332,238.8888888888889,-18.458333333333332,266.6666666666667,-17C294.44444444444446,-15.541666666666666,305.5555555555556,22.791666666666668,333.33333333333337,23C361.11111111111114,23.208333333333332,372.22222222222223,-18.083333333333332,400,-16C427.77777777777777,-13.916666666666666,438.8888888888889,31.125,466.6666666666667,33C494.44444444444446,34.875,505.5555555555556,-10.958333333333332,533.3333333333334,-7C561.1111111111111,-3.041666666666667,572.2222222222222,49.916666666666664,600,52C627.7777777777778,54.083333333333336,638.8888888888889,5.708333333333333,666.6666666666667,3C694.4444444444446,0.29166666666666696,707.6388888888889,37.541666666666664,733.3333333333334,39C759.0277777777778,40.458333333333336,778.1944444444445,16.041666666666664,790,10" transform="matrix(1,0,0,1,0,105)"></path><path d="M10,10C21.805555555555557,10.833333333333334,40.97222222222223,22.958333333333336,66.66666666666667,14C92.36111111111111,5.041666666666666,105.55555555555557,-33.416666666666664,133.33333333333334,-33C161.11111111111111,-32.583333333333336,172.22222222222223,12.666666666666668,200,16C227.77777777777777,19.333333333333332,238.8888888888889,-18.458333333333332,266.6666666666667,-17C294.44444444444446,-15.541666666666666,305.5555555555556,22.791666666666668,333.33333333333337,23C361.11111111111114,23.208333333333332,372.22222222222223,-18.083333333333332,400,-16C427.77777777777777,-13.916666666666666,438.8888888888889,31.125,466.6666666666667,33C494.44444444444446,34.875,505.5555555555556,-10.958333333333332,533.3333333333334,-7C561.1111111111111,-3.041666666666667,572.2222222222222,49.916666666666664,600,52C627.7777777777778,54.083333333333336,638.8888888888889,5.708333333333333,666.6666666666667,3C694.4444444444446,0.29166666666666696,707.6388888888889,37.541666666666664,733.3333333333334,39C759.0277777777778,40.458333333333336,778.1944444444445,16.041666666666664,790,10" transform="matrix(1,0,0,1,0,70)"></path><path d="M10,10C21.805555555555557,10.833333333333334,40.97222222222223,22.958333333333336,66.66666666666667,14C92.36111111111111,5.041666666666666,105.55555555555557,-33.416666666666664,133.33333333333334,-33C161.11111111111111,-32.583333333333336,172.22222222222223,12.666666666666668,200,16C227.77777777777777,19.333333333333332,238.8888888888889,-18.458333333333332,266.6666666666667,-17C294.44444444444446,-15.541666666666666,305.5555555555556,22.791666666666668,333.33333333333337,23C361.11111111111114,23.208333333333332,372.22222222222223,-18.083333333333332,400,-16C427.77777777777777,-13.916666666666666,438.8888888888889,31.125,466.6666666666667,33C494.44444444444446,34.875,505.5555555555556,-10.958333333333332,533.3333333333334,-7C561.1111111111111,-3.041666666666667,572.2222222222222,49.916666666666664,600,52C627.7777777777778,54.083333333333336,638.8888888888889,5.708333333333333,666.6666666666667,3C694.4444444444446,0.29166666666666696,707.6388888888889,37.541666666666664,733.3333333333334,39C759.0277777777778,40.458333333333336,778.1944444444445,16.041666666666664,790,10" transform="matrix(1,0,0,1,0,35)"></path></g></svg>